{"title":"Straw Dogs - 2011 (No Cinavia) 720p","uid":11138810,"size":2888388106,"categoryP":"video","categoryS":"hd___movies","magnet":"?xt=urn:btih:18fe38927032372106d1aad39031b26426be2cc3&amp;dn=Straw+Dogs+-+2011+%28No+Cinavia%29+720p&amp;tr=udp%3A%2F%2Ftracker.openbittorrent.com%3A80&amp;tr=udp%3A%2F%2Fopen.demonii.com%3A1337&amp;tr=udp%3A%2F%2Ftracker.coppersurfer.tk%3A6969&amp;tr=udp%3A%2F%2Fexodus.desync.com%3A6969","seeders":1,"leechers":1,"uploader":"AlienMethod","files":-1,"time":1412143272,"description":"x264/AAC (ps3-friendly)\nCinavia Removed/CinExHD\n2-Channel AAC@192kbps (audio 1)\nDS 5.1 AC3@448kbps (audio 2)\n(Credit to Feel-Free for extracted video encode)\n\n&quot;L.A. screenwriter David Sumner relocates with his wife to her hometown in the deep South. There, while tensions build between them, a brewing conflict with locals becomes a threat to them both.&quot;\n\nVideo\nID : 1\nFormat : AVC\nFormat/Info : Advanced Video Codec\nFormat profile : &lt;a class=&quot;__cf_email__&quot; href=&quot;/cdn-cgi/l/email-protection&quot; data-cfemail=&quot;1850717f7058542d3629&quot;&gt;[email&amp;#160;protected]&lt;/a&gt;&lt;script cf-hash='f9e31' type=&quot;text/javascript&quot;&gt;\n/* &lt;![CDATA[ */!function(){try{var t=&quot;currentScript&quot;in document?document.currentScript:function(){for(var t=document.getElementsByTagName(&quot;script&quot;),e=t.length;e--;)if(t[e].getAttribute(&quot;cf-hash&quot;))return t[e]}();if(t&amp;&amp;t.previousSibling){var e,r,n,i,c=t.previousSibling,a=c.getAttribute(&quot;data-cfemail&quot;);if(a){for(e=&quot;&quot;,r=parseInt(a.substr(0,2),16),n=2;a.length-n;n+=2)i=parseInt(a.substr(n,2),16)^r,e+=String.fromCharCode(i);e=document.createTextNode(e),c.parentNode.replaceChild(e,c)}}}catch(u){}}();/* ]]&gt; */&lt;/script&gt;\nFormat settings, CABAC : Yes\nFormat settings, ReFrames : 3 frames\nCodec ID : avc1\nCodec ID/Info : Advanced Video Coding\nDuration : 1h 49mn\nBit rate : 2 930 Kbps\nMaximum bit rate : 21.3 Mbps\nWidth : 1 280 pixels\nHeight : 536 pixels\nDisplay aspect ratio : 2.40:1\nFrame rate mode : Constant\nFrame rate : 23.976 fps\nColor space : YUV\nChroma subsampling : 4:2:0\nBit depth : 8 bits\nScan type : Progressive\nBits/(Pixel*Frame) : 0.178\nStream size : 2.25 GiB (83%)\nTitle : StrawDogs(CinEx)_track1.h264\nEncoded date : UTC 2014-10-01 01:26:55\nTagged date : UTC 2014-10-01 01:27:12\n\nAudio #1\nID : 2\nFormat : AAC\nFormat/Info : Advanced Audio Codec\nFormat profile : LC\nCodec ID : 40\nDuration : 1h 49mn\nBit rate mode : Variable\nBit rate : 128 Kbps\nMaximum bit rate : 136 Kbps\nChannel(s) : 2 channels\nChannel positions : Front: L R\nSampling rate : 48.0 KHz\nCompression mode : Lossy\nStream size : 100 MiB (4%)\nTitle : StrawDogs(CinEx)AAC.m4a\nEncoded date : UTC 2014-10-01 01:27:06\nTagged date : UTC 2014-10-01 01:27:12\n\nAudio #2\nID : 3\nFormat : AC-3\nFormat/Info : Audio Coding 3\nMode extension : CM (complete main)\nFormat settings, Endianness : Big\nCodec ID : ac-3\nDuration : 1h 49mn\nBit rate mode : Constant\nBit rate : 448 Kbps\nChannel(s) : 6 channels\nChannel positions : Front: L C R, Side: L R, LFE\nSampling rate : 48.0 KHz\nBit depth : 16 bits\nCompression mode : Lossy\nStream size : 352 MiB (13%)\nTitle : StrawDogs(CinEx)AC3.ac3\nEncoded date : UTC 2014-10-01 01:27:10\nTagged date : UTC 2014-10-01 01:27:12\n\nm/ AM m/\n","torrent":{"xt":"urn:btih:18fe38927032372106d1aad39031b26426be2cc3","amp;dn":"Straw+Dogs+-+2011+%28No+Cinavia%29+720p","amp;tr":["udp%3A%2F%2Ftracker.openbittorrent.com%3A80","udp%3A%2F%2Fopen.demonii.com%3A1337","udp%3A%2F%2Ftracker.coppersurfer.tk%3A6969","udp%3A%2F%2Fexodus.desync.com%3A6969"],"infoHash":"18fe38927032372106d1aad39031b26426be2cc3","infoHashBuffer":{"type":"Buffer","data":[24,254,56,146,112,50,55,33,6,209,170,211,144,49,178,100,38,190,44,195]},"announce":[],"urlList":[]}}